{"title":"Rosco Dash ft Fabo and T-Pain - My Own Step [KingPinVideos]","uid":5761552,"size":93091439,"categoryP":"video","categoryS":"music_videos","magnet":"?xt=urn:btih:ed57a4fa464c5b96c236388bd240aeffe6515cb9&amp;dn=Rosco+Dash+ft+Fabo+and+T-Pain+-+My+Own+Step+%5BKingPinVideos%5D&amp;tr=udp%3A%2F%2Ftracker.openbittorrent.com%3A80&amp;tr=udp%3A%2F%2Fopen.demonii.com%3A1337&amp;tr=udp%3A%2F%2Ftracker.coppersurfer.tk%3A6969&amp;tr=udp%3A%2F%2Fexodus.desync.com%3A6969","seeders":0,"leechers":0,"uploader":"KingPinMan","files":4,"time":1281749039,"description":"[img]http://a.imageshack.us/img804/2277/roscoedashstep.png[/img]\n\n[img]http://a.imageshack.us/img820/4230/roscoedashstep2.png[/img]\n\n[code]General\nComplete name                    : Rosco Dash ft Fabo and T-Pain - My Own Step [KingPinVideos].mpg\nFormat                           : MPEG-PS\nFile size                        : 88.8 MiB\nDuration                         : 4mn 20s\nOverall bit rate                 : 2 858 Kbps\nWriting library                  : encoded by TMPGEnc 4.0 XPress Version. 4.7.4.299\n\nVideo\nID                               : 224 (0xE0)\nFormat                           : MPEG Video\nFormat version                   : Version 1\nFormat settings, BVOP            : Yes\nFormat settings, Matrix          : Default\nDuration                         : 4mn 20s\nBit rate mode                    : Constant\nBit rate                         : 2 617 Kbps\nNominal bit rate                 : 2 700 Kbps\nWidth                            : 384 pixels\nHeight                           : 208 pixels\nDisplay aspect ratio             : 16:9\nFrame rate                       : 29.970 fps\nResolution                       : 8 bits\nScan type                        : Progressive\nBits/(Pixel*Frame)               : 1.093\nStream size                      : 81.3 MiB (92%)\nWriting library                  : TMPGEnc XPress 4.7.4.299\n\nAudio\nID                               : 192 (0xC0)\nFormat                           : MPEG Audio\nFormat version                   : Version 1\nFormat profile                   : Layer 2\nDuration                         : 4mn 20s\nBit rate mode                    : Constant\nBit rate                         : 128 Kbps\nChannel(s)                       : 2 channels\nSampling rate                    : 48.0 KHz\nStream size                      : 3.97 MiB (4%)[/code]","torrent":{"xt":"urn:btih:ed57a4fa464c5b96c236388bd240aeffe6515cb9","amp;dn":"Rosco+Dash+ft+Fabo+and+T-Pain+-+My+Own+Step+%5BKingPinVideos%5D","amp;tr":["udp%3A%2F%2Ftracker.openbittorrent.com%3A80","udp%3A%2F%2Fopen.demonii.com%3A1337","udp%3A%2F%2Ftracker.coppersurfer.tk%3A6969","udp%3A%2F%2Fexodus.desync.com%3A6969"],"infoHash":"ed57a4fa464c5b96c236388bd240aeffe6515cb9","infoHashBuffer":{"type":"Buffer","data":[237,87,164,250,70,76,91,150,194,54,56,139,210,64,174,255,230,81,92,185]},"announce":[],"urlList":[]}}